<?xml version="1.0" encoding="iso-8859-1"?>
<!-- Generator: Adobe Illustrator 18.0.0, SVG Export Plug-In . SVG Version: 6.00 Build 0)  -->
<!DOCTYPE svg PUBLIC "-//W3C//DTD SVG 1.1//EN" "http://www.w3.org/Graphics/SVG/1.1/DTD/svg11.dtd">
<svg version="1.1" id="_x30_" xmlns="http://www.w3.org/2000/svg" xmlns:xlink="http://www.w3.org/1999/xlink" x="0px" y="0px"
	 viewBox="0 0 512 512" style="enable-background:new 0 0 512 512;" xml:space="preserve">
<g>
	<rect style="opacity:0;fill:#FFFFFF;" width="512" height="512"/>
	<polygon style="opacity:0.1;fill:#231815;" points="512,306.74 512,512 224.82,512 137.625,424.805 208.435,353.995 
		221.595,340.84 82.073,201.32 158.72,198.605 166.605,206.385 200.755,172.235 271.515,101.48 420.145,250.11 438.885,233.625 	"/>
	<g>
		<path style="fill:#D2907E;" d="M136.643,212.88c0.062-5.47-3.795-19.835,2-31.59c5.79-11.755-30.467-14.825-48.835,0.265
			c-17.685,14.53,1.273,27.035,12.943,24.285C126.397,200.265,136.523,223.955,136.643,212.88z"/>
		<path style="fill:#DD9275;" d="M124.267,147.29c0.057,5.465-3.795,19.83,1.995,31.59c5.79,11.745-33.768,18.115-48.83-0.27
			c-15.065-18.385,1.27-27.03,12.945-24.28C114.013,159.9,124.14,136.21,124.267,147.29z"/>
		<path style="fill:#F8E68C;" d="M126.53,268.655c13.12-15.445,23.878-22.395,15.022-36.39c-16.885-16.89-24.755-35.17-24.755-60.94
			c0-25.765,10.445-49.09,27.33-65.975c16.887-16.885,40.207-27.335,65.977-27.335c25.77,0,49.09,10.45,65.98,27.335
			c16.885,16.885,27.325,40.21,27.325,65.975c0,38.09-30.465,68.555-30.465,87.595c-1.905,7.62,11.425,17.145,28.56,17.145
			c17.145,0,74.27,13.325,116.16-41.895c11.025-15.24,24.355-6.665,22.855,15.23c-1.44,20.985-13.335,198.045-139.015,198.045
			c-36.175,0-31.595,0-100.925,0c-28.915,0-55.097-11.725-74.05-30.675c-18.957-18.955-30.68-45.135-30.68-74.065
			C95.85,313.79,107.573,287.605,126.53,268.655"/>
		<path style="fill:#E5D29B;" d="M229.77,323.67h139.415c15.23,0,19.04,26.655-5.715,41.895c0,19.035-9.525,47.6-38.085,47.6
			c-28.57,0-62.84,0-87.595,0c-24.76,0-41.895-28.565-41.895-45.7C195.895,350.325,212.63,323.67,229.77,323.67z"/>
		<path style="fill:#F2E0A8;" d="M220.245,312.24H359.66c15.23,0,19.04,26.66-5.715,41.895c0,19.045-9.52,47.61-38.08,47.61
			c-28.565,0-62.845,0-87.6,0s-41.89-28.565-41.89-45.705C186.375,338.9,203.11,312.24,220.245,312.24z"/>
		<path style="fill:#FFFFFF;" d="M186.375,157.04c0,12.1-9.81,21.905-21.898,21.905c-12.095,0-21.902-9.805-21.902-21.905
			c0-12.085,9.807-21.895,21.902-21.895C176.565,135.145,186.375,144.955,186.375,157.04z"/>
		<path style="fill:#838384;" d="M174.95,157.04c0,5.79-4.692,10.48-10.472,10.48c-5.785,0-10.475-4.69-10.475-10.48
			c0-5.775,4.69-10.465,10.475-10.465C170.257,146.575,174.95,151.265,174.95,157.04z"/>
		<path style="opacity:0.07;fill:#D9551A;" d="M417.665,234.17c-41.89,55.22-99.015,41.895-116.16,41.895
			c-17.135,0-30.465-9.525-28.56-17.145c0-11.735,11.58-27.825,20.46-47.36l-183.51,183.51c4.597,7.945,10.185,15.245,16.635,21.7
			c18.953,18.95,45.135,30.675,74.05,30.675c69.33,0,64.75,0,100.925,0c125.68,0,137.575-177.06,139.015-198.045
			C442.02,227.505,428.69,218.93,417.665,234.17z"/>
	</g>
</g>
</svg>
